<?xml version="1.0" encoding="UTF-8" standalone="no"?>
<svg
   width="24"
   height="24"
   version="1.1"
   id="svg4"
   sodipodi:docname="notification-disabled-symbolic.svg"
   inkscape:version="1.1.2 (0a00cf5339, 2022-02-04)"
   xmlns:inkscape="http://www.inkscape.org/namespaces/inkscape"
   xmlns:sodipodi="http://sodipodi.sourceforge.net/DTD/sodipodi-0.dtd"
   xmlns="http://www.w3.org/2000/svg"
   xmlns:svg="http://www.w3.org/2000/svg">
  <defs
     id="defs8" />
  <sodipodi:namedview
     id="namedview6"
     pagecolor="#505050"
     bordercolor="#eeeeee"
     borderopacity="1"
     inkscape:pageshadow="0"
     inkscape:pageopacity="0"
     inkscape:pagecheckerboard="0"
     showgrid="false"
     inkscape:zoom="29.458333"
     inkscape:cx="12"
     inkscape:cy="12"
     inkscape:window-width="1920"
     inkscape:window-height="1022"
     inkscape:window-x="0"
     inkscape:window-y="24"
     inkscape:window-maximized="1"
     inkscape:current-layer="svg4" />
  <path
     d="m7.0503 7.0502a7 7 0 0 0 0 9.8995 7 7 0 0 0 9.8995 0 7 7 0 0 0 1.4266-2.0923 7 7 0 0 0 0.01243-0.0041 7 7 0 0 0 0.05248-0.13258 7 7 0 0 0 0.09391-0.24307 7 7 0 0 0 0.15882-0.45713 7 7 0 0 0 0.05248-0.19335 7 7 0 0 0 0.09667-0.35632 6 6 0 0 1-0.0069 0.0041 6 6 0 0 1-0.0055 0.0028 6 6 0 0 1-1.2112 0.60629 6 6 0 0 1-0.0014 0.0014 6 6 0 0 1-6.3253-1.3784 6 6 0 0 1-1.3079-6.4896 6 6 0 0 1 0.11877-0.27345 6 6 0 0 1 0.14916-0.29831 6 6 0 0 1 0.13673-0.24445 6 6 0 0 1 0.14501-0.23892 6 6 0 0 1 0.0041-0.00691 7 7 0 0 0-3.4886 1.8948zm0.70711 0.70711a6 6 0 0 1 0.94465-0.76511 7 7 0 0 0 1.8838 6.422 7 7 0 0 0 6.4095 1.8907 6 6 0 0 1-0.75268 0.93774 6 6 0 0 1-8.4853 0 6 6 0 0 1 0-8.4853z"
     fill="#ffffff"
     id="path2"
     style="opacity:0.35" />
</svg>
